<mxfile host="app.diagrams.net" modified="2023-01-31T07:28:53.776Z" agent="5.0 (Windows NT 10.0; Win64; x64) AppleWebKit/537.36 (KHTML, like Gecko) Chrome/109.0.0.0 Safari/537.36" etag="fmYK-iaANUe0s24Ocv7n" version="20.8.13" type="github">
  <diagram name="Page-1" id="jQB5sLmfadwmWRlLw_7O">
    <mxGraphModel dx="1050" dy="1649" grid="1" gridSize="10" guides="1" tooltips="1" connect="1" arrows="1" fold="1" page="1" pageScale="1" pageWidth="850" pageHeight="1100" math="0" shadow="0">
      <root>
        <mxCell id="0" />
        <mxCell id="1" parent="0" />
        <mxCell id="XMu1TJ0_6tThkborvl6f-1" value="View" style="shape=folder;fontStyle=1;tabWidth=110;tabHeight=30;tabPosition=left;html=1;boundedLbl=1;labelInHeader=1;container=1;collapsible=0;" vertex="1" parent="1">
          <mxGeometry x="70" y="-50" width="200" height="140" as="geometry" />
        </mxCell>
        <mxCell id="XMu1TJ0_6tThkborvl6f-2" value="" style="html=1;strokeColor=none;resizeWidth=1;resizeHeight=1;fillColor=none;part=1;connectable=0;allowArrows=0;deletable=0;" vertex="1" parent="XMu1TJ0_6tThkborvl6f-1">
          <mxGeometry width="199.99999999999997" height="98" relative="1" as="geometry">
            <mxPoint y="30" as="offset" />
          </mxGeometry>
        </mxCell>
        <mxCell id="XMu1TJ0_6tThkborvl6f-10" value="Home" style="rounded=0;whiteSpace=wrap;html=1;" vertex="1" parent="XMu1TJ0_6tThkborvl6f-1">
          <mxGeometry x="10" y="60" width="85.83" height="44" as="geometry" />
        </mxCell>
        <mxCell id="XMu1TJ0_6tThkborvl6f-21" value="Login" style="rounded=0;whiteSpace=wrap;html=1;" vertex="1" parent="XMu1TJ0_6tThkborvl6f-1">
          <mxGeometry x="100" y="60" width="85.83" height="44" as="geometry" />
        </mxCell>
        <mxCell id="XMu1TJ0_6tThkborvl6f-3" value="Small Quiz System" style="shape=folder;fontStyle=1;tabWidth=80;tabHeight=30;tabPosition=left;html=1;boundedLbl=1;fillColor=#f8cecc;strokeColor=#b85450;" vertex="1" parent="1">
          <mxGeometry x="440" y="260" width="150" height="80" as="geometry" />
        </mxCell>
        <mxCell id="XMu1TJ0_6tThkborvl6f-6" value="Guest UI" style="shape=folder;fontStyle=1;tabWidth=80;tabHeight=30;tabPosition=left;html=1;boundedLbl=1;fillColor=#fff2cc;strokeColor=#d6b656;" vertex="1" parent="1">
          <mxGeometry x="210" y="140" width="150" height="80" as="geometry" />
        </mxCell>
        <mxCell id="XMu1TJ0_6tThkborvl6f-7" value="" style="endArrow=none;dashed=1;html=1;rounded=0;exitX=0.5;exitY=1;exitDx=0;exitDy=0;exitPerimeter=0;" edge="1" parent="1" source="XMu1TJ0_6tThkborvl6f-6">
          <mxGeometry width="50" height="50" relative="1" as="geometry">
            <mxPoint x="400" y="110" as="sourcePoint" />
            <mxPoint x="440" y="320" as="targetPoint" />
            <Array as="points">
              <mxPoint x="285" y="320" />
              <mxPoint x="420" y="320" />
            </Array>
          </mxGeometry>
        </mxCell>
        <mxCell id="XMu1TJ0_6tThkborvl6f-22" value="" style="endArrow=none;dashed=1;html=1;rounded=0;exitX=0;exitY=0;exitDx=150;exitDy=55;exitPerimeter=0;" edge="1" parent="1" source="XMu1TJ0_6tThkborvl6f-3">
          <mxGeometry width="50" height="50" relative="1" as="geometry">
            <mxPoint x="400" y="210" as="sourcePoint" />
            <mxPoint x="680" y="210" as="targetPoint" />
            <Array as="points">
              <mxPoint x="680" y="315" />
            </Array>
          </mxGeometry>
        </mxCell>
      </root>
    </mxGraphModel>
  </diagram>
</mxfile>
